<svg xmlns="http://www.w3.org/2000/svg" xmlns:xlink="http://www.w3.org/1999/xlink" version="1.1" style="enable-background:new 0 0 512 512;" xml:space="preserve" width="512" height="512"><rect id="backgroundrect" width="100%" height="100%" x="0" y="0" fill="none" stroke="none"/>



















<g class="currentLayer" style=""><title>Layer 1</title><path style="" d="M433.531,177.531c0,40.043-28.086,106.04-83.477,196.141  c-40.503,65.887-81.586,121.479-81.996,122.039L256,512l-12.057-16.289c-0.41-0.56-41.493-56.152-81.996-122.039  c-55.391-90.101-83.477-156.098-83.477-196.141C78.469,79.645,158.105,0,256,0S433.531,79.645,433.531,177.531z" id="svg_1" class="" fill="#0f3455" fill-opacity="1"/><path style="" d="M357.517,174.779c0,55.982-45.536,101.527-101.518,101.527s-101.517-45.546-101.517-101.527  c0-55.972,45.536-101.518,101.517-101.518S357.517,118.807,357.517,174.779z" id="svg_2" class="" fill="#ffffff" fill-opacity="1"/><path style="" d="M433.531,177.531c0,40.043-28.086,106.04-83.477,196.141  c-40.503,65.887-81.586,121.479-81.996,122.039L256,512V0C353.895,0,433.531,79.645,433.531,177.531z" id="svg_3" class="" fill-opacity="1" fill="#0f3455"/><path style="" d="M357.517,174.779c0,55.982-45.536,101.527-101.518,101.527V73.261  C311.982,73.261,357.517,118.807,357.517,174.779z" id="svg_4" class="" fill="#ffffff" fill-opacity="1"/><g id="svg_5">
</g><g id="svg_6">
</g><g id="svg_7">
</g><g id="svg_8">
</g><g id="svg_9">
</g><g id="svg_10">
</g><g id="svg_11">
</g><g id="svg_12">
</g><g id="svg_13">
</g><g id="svg_14">
</g><g id="svg_15">
</g><g id="svg_16">
</g><g id="svg_17">
</g><g id="svg_18">
</g><g id="svg_19">
</g></g></svg>