<svg xmlns="http://www.w3.org/2000/svg" xmlns:xlink="http://www.w3.org/1999/xlink" version="1.1" style="enable-background:new 0 0 512 512;" xml:space="preserve" width="512" height="512"><rect id="backgroundrect" width="100%" height="100%" x="0" y="0" fill="none" stroke="none"/>



















<g class="currentLayer" style=""><title>Layer 1</title><path style="" d="M433.531005859375,174.7220160961151 c0,40.042999267578125 -28.086000442504883,106.04000091552734 -83.47699737548828,196.14100646972656 c-40.50299835205078,65.88700103759766 -81.58599853515625,121.47899627685547 -81.99600219726562,122.03900146484375 L256,509.1910102367401 l-12.057000160217285,-16.288999557495117 c-0.4099999964237213,-0.5600000023841858 -41.49300003051758,-56.152000427246094 -81.99600219726562,-122.03900146484375 c-55.39099884033203,-90.10099792480469 -83.47699737548828,-156.09800720214844 -83.47699737548828,-196.14100646972656 C78.46900177001953,76.83601450920105 158.10499572753906,-2.8089886903762817 256,-2.8089886903762817 S433.531005859375,76.83601450920105 433.531005859375,174.7220160961151 z" id="svg_1" class="" fill="#e8e841" fill-opacity="1"/><path style="" d="M357.517,174.779c0,55.982-45.536,101.527-101.518,101.527s-101.517-45.546-101.517-101.527  c0-55.972,45.536-101.518,101.517-101.518S357.517,118.807,357.517,174.779z" id="svg_2" class="" fill="#ffffff" fill-opacity="1"/><path style="" d="M433.531005859375,176.4074103832245 c0,40.042999267578125 -28.086000442504883,106.04000091552734 -83.47699737548828,196.14100646972656 c-40.50299835205078,65.88700103759766 -81.58599853515625,121.47899627685547 -81.99600219726562,122.03900146484375 L256,510.8764045238495 V-1.1235954761505127 C353.8949890136719,-1.1235954761505127 433.531005859375,78.5214011669159 433.531005859375,176.4074103832245 z" id="svg_3" class="selected" fill="#ebeb1a" fill-opacity="1" opacity="1"/><path style="" d="M357.517,174.779c0,55.982-45.536,101.527-101.518,101.527V73.261  C311.982,73.261,357.517,118.807,357.517,174.779z" id="svg_4" class="" fill="#ffffff" fill-opacity="1"/><g id="svg_5">
</g><g id="svg_6">
</g><g id="svg_7">
</g><g id="svg_8">
</g><g id="svg_9">
</g><g id="svg_10">
</g><g id="svg_11">
</g><g id="svg_12">
</g><g id="svg_13">
</g><g id="svg_14">
</g><g id="svg_15">
</g><g id="svg_16">
</g><g id="svg_17">
</g><g id="svg_18">
</g><g id="svg_19">
</g></g></svg>